<svg xmlns="http://www.w3.org/2000/svg" viewBox="0 0 100 100" fill="none">
  <defs>
    <linearGradient id="rausch" x1="8" y1="8" x2="92" y2="92" gradientUnits="userSpaceOnUse">
      <stop offset="0%" stop-color="#ff385c"/>
      <stop offset="55%" stop-color="#e00b41"/>
      <stop offset="100%" stop-color="#92174d"/>
    </linearGradient>
    <linearGradient id="sky" x1="50" y1="12" x2="50" y2="88" gradientUnits="userSpaceOnUse">
      <stop offset="0%" stop-color="#1a1d26"/>
      <stop offset="100%" stop-color="#08090a"/>
    </linearGradient>
  </defs>
  <rect width="100" height="100" rx="22" fill="url(#sky)"/>
  <circle cx="50" cy="50" r="34" fill="url(#rausch)" opacity="0.12"/>
  <path
    d="M50 18c-11 0-20 9-20 20 0 14 20 36 20 36s20-22 20-36c0-11-9-20-20-20z"
    fill="url(#rausch)"
  />
  <circle cx="50" cy="38" r="7.5" fill="#ffffff"/>
  <path
    d="M28 62l8-3 5 2 18-10 3 1-4 9-5-1-8 3-3-5 2-6-6 10z"
    fill="#ffffff"
    opacity="0.95"
  />
</svg>
